<svg width="128" height="128" viewBox="0 0 128 128" fill="none" xmlns="http://www.w3.org/2000/svg">
<circle cx="63" cy="92" r="24" fill="#520C7E"/>
<circle cx="64" cy="91" r="24" fill="url(#paint0_linear_11974_34)"/>
<circle cx="96" cy="62" r="24" fill="#520C7E"/>
<circle cx="96" cy="61" r="24" fill="url(#paint1_linear_11974_34)"/>
<path d="M96.3312 77.78C93.4539 77.78 90.9405 77.1213 88.7912 75.804C86.6419 74.4867 84.9779 72.6667 83.7992 70.344C82.6205 67.9867 82.0312 65.3 82.0312 62.284C82.0312 59.2333 82.6205 56.5293 83.7992 54.172C84.9779 51.8147 86.6592 49.96 88.8432 48.608C91.0272 47.256 93.6445 46.58 96.6952 46.58C99.2605 46.58 101.479 47.0653 103.351 48.036C105.258 49.0067 106.731 50.3933 107.771 52.196C108.846 53.9987 109.383 56.148 109.383 58.644H101.323C101.323 57.2227 100.89 56.0787 100.023 55.212C99.1565 54.3107 98.0125 53.86 96.5912 53.86C94.7885 53.86 93.3325 54.6227 92.2232 56.148C91.1485 57.6387 90.6112 59.6667 90.6112 62.232C90.6112 64.7627 91.1485 66.7733 92.2232 68.264C93.2979 69.7547 94.7539 70.5 96.5912 70.5C98.0472 70.5 99.2605 70.0667 100.231 69.2C101.237 68.2987 101.739 67.2067 101.739 65.924H109.799C109.799 67.276 109.505 68.6627 108.915 70.084C108.326 71.4707 107.459 72.7533 106.315 73.932C105.171 75.076 103.75 76.012 102.051 76.74C100.387 77.4333 98.4805 77.78 96.3312 77.78Z" fill="#FFA3CB"/>
<path d="M97.3312 76.78C94.4539 76.78 91.9405 76.1213 89.7912 74.804C87.6419 73.4867 85.9779 71.6667 84.7992 69.344C83.6205 66.9867 83.0312 64.3 83.0312 61.284C83.0312 58.2333 83.6205 55.5293 84.7992 53.172C85.9779 50.8147 87.6592 48.96 89.8432 47.608C92.0272 46.256 94.6445 45.58 97.6952 45.58C100.261 45.58 102.479 46.0653 104.351 47.036C106.258 48.0067 107.731 49.3933 108.771 51.196C109.846 52.9987 110.383 55.148 110.383 57.644H102.323C102.323 56.2227 101.89 55.0787 101.023 54.212C100.157 53.3107 99.0125 52.86 97.5912 52.86C95.7885 52.86 94.3325 53.6227 93.2232 55.148C92.1485 56.6387 91.6112 58.6667 91.6112 61.232C91.6112 63.7627 92.1485 65.7733 93.2232 67.264C94.2979 68.7547 95.7539 69.5 97.5912 69.5C99.0472 69.5 100.261 69.0667 101.231 68.2C102.237 67.2987 102.739 66.2067 102.739 64.924H110.799C110.799 66.276 110.505 67.6627 109.915 69.084C109.326 70.4707 108.459 71.7533 107.315 72.932C106.171 74.076 104.75 75.012 103.051 75.74C101.387 76.4333 99.4805 76.78 97.3312 76.78Z" fill="url(#paint2_linear_11974_34)"/>
<circle cx="63" cy="36" r="24" fill="#520C7E"/>
<circle cx="64" cy="35" r="24" fill="url(#paint3_linear_11974_34)"/>
<path d="M63.5399 50.78C60.5239 50.78 57.9066 50.156 55.6879 48.908C53.4692 47.6253 51.7359 45.8227 50.4879 43.5C49.2746 41.1427 48.6679 38.3693 48.6679 35.18C48.6679 31.9907 49.2746 29.2347 50.4879 26.912C51.7012 24.5893 53.3999 22.7867 55.5839 21.504C57.8026 20.2213 60.4026 19.58 63.3839 19.58C66.4692 19.58 69.0866 20.2733 71.2359 21.66C73.4199 23.0467 75.0492 25.0573 76.1239 27.692C77.2332 30.3267 77.7012 33.4987 77.5279 37.208H57.1439C57.4212 39.4267 58.1492 41.16 59.3279 42.408C60.5066 43.656 62.0319 44.28 63.9039 44.28C65.4292 44.28 66.6772 43.916 67.6479 43.188C68.6186 42.4253 69.2252 41.5067 69.4679 40.432H77.3199C76.9732 42.5813 76.1586 44.436 74.8759 45.996C73.6279 47.5213 72.0332 48.7 70.0919 49.532C68.1506 50.364 65.9666 50.78 63.5399 50.78ZM63.4359 26.028C61.7372 26.028 60.3332 26.5827 59.2239 27.692C58.1146 28.7667 57.4212 30.2227 57.1439 32.06H69.2079C69.0692 29.876 68.4279 28.3333 67.2839 27.432C66.1399 26.496 64.8572 26.028 63.4359 26.028Z" fill="#D1F36B"/>
<path d="M64.5399 49.78C61.5239 49.78 58.9066 49.156 56.6879 47.908C54.4692 46.6253 52.7359 44.8227 51.4879 42.5C50.2746 40.1427 49.6679 37.3693 49.6679 34.18C49.6679 30.9907 50.2746 28.2347 51.4879 25.912C52.7012 23.5893 54.3999 21.7867 56.5839 20.504C58.8026 19.2213 61.4026 18.58 64.3839 18.58C67.4692 18.58 70.0866 19.2733 72.2359 20.66C74.4199 22.0467 76.0492 24.0573 77.1239 26.692C78.2332 29.3267 78.7012 32.4987 78.5279 36.208H58.1439C58.4212 38.4267 59.1492 40.16 60.3279 41.408C61.5066 42.656 63.0319 43.28 64.9039 43.28C66.4292 43.28 67.6772 42.916 68.6479 42.188C69.6186 41.4253 70.2252 40.5067 70.4679 39.432H78.3199C77.9732 41.5813 77.1586 43.436 75.8759 44.996C74.6279 46.5213 73.0332 47.7 71.0919 48.532C69.1506 49.364 66.9666 49.78 64.5399 49.78ZM64.4359 25.028C62.7372 25.028 61.3332 25.5827 60.2239 26.692C59.1146 27.7667 58.4212 29.2227 58.1439 31.06H70.2079C70.0692 28.876 69.4279 27.3333 68.2839 26.432C67.1399 25.496 65.8572 25.028 64.4359 25.028Z" fill="url(#paint4_linear_11974_34)"/>
<circle cx="31" cy="62" r="24" fill="#520C7E"/>
<circle cx="32" cy="61" r="24" fill="url(#paint5_linear_11974_34)"/>
<path d="M17.3107 76V57.575C17.3107 54.7517 17.879 52.3133 19.0157 50.26C20.189 48.2067 21.839 46.63 23.9657 45.53C26.0923 44.3933 28.604 43.825 31.5007 43.825C34.3973 43.825 36.909 44.3933 39.0357 45.53C41.1623 46.63 42.794 48.2067 43.9307 50.26C45.104 52.3133 45.6907 54.7517 45.6907 57.575V76H36.7807V57.685C36.7807 55.705 36.2857 54.1833 35.2957 53.12C34.3423 52.0567 33.0773 51.525 31.5007 51.525C29.9607 51.525 28.6957 52.0567 27.7057 53.12C26.7157 54.1833 26.2207 55.705 26.2207 57.685V76H17.3107Z" fill="#9ED7FF"/>
<path d="M18.3107 75V56.575C18.3107 53.7517 18.879 51.3133 20.0157 49.26C21.189 47.2067 22.839 45.63 24.9657 44.53C27.0923 43.3933 29.604 42.825 32.5007 42.825C35.3973 42.825 37.909 43.3933 40.0357 44.53C42.1623 45.63 43.794 47.2067 44.9307 49.26C46.104 51.3133 46.6907 53.7517 46.6907 56.575V75H37.7807V56.685C37.7807 54.705 37.2857 53.1833 36.2957 52.12C35.3423 51.0567 34.0773 50.525 32.5007 50.525C30.9607 50.525 29.6957 51.0567 28.7057 52.12C27.7157 53.1833 27.2207 54.705 27.2207 56.685V75H18.3107Z" fill="url(#paint6_linear_11974_34)"/>
<g clip-path="url(#clip0_11974_34)">
<g filter="url(#filter0_d_11974_34)">
<circle cx="64" cy="91" r="24" fill="url(#paint7_linear_11974_34)"/>
</g>
</g>
<path d="M62.9886 107.78C60.042 107.78 57.4246 107.121 55.1366 105.804C52.8486 104.487 51.046 102.667 49.7286 100.344C48.446 97.9867 47.8046 95.3 47.8046 92.284C47.8046 89.1987 48.446 86.4773 49.7286 84.12C51.046 81.7627 52.8486 79.9253 55.1366 78.608C57.4246 77.256 60.042 76.58 62.9886 76.58C65.97 76.58 68.5873 77.256 70.8406 78.608C73.1286 79.9253 74.914 81.7627 76.1966 84.12C77.514 86.4773 78.1726 89.1987 78.1726 92.284C78.1726 95.3 77.514 97.9867 76.1966 100.344C74.914 102.667 73.1286 104.487 70.8406 105.804C68.5873 107.121 65.97 107.78 62.9886 107.78ZM62.9886 100.5C64.93 100.5 66.5073 99.7373 67.7206 98.212C68.9686 96.6867 69.5926 94.7107 69.5926 92.284C69.5926 89.788 68.9686 87.76 67.7206 86.2C66.5073 84.64 64.93 83.86 62.9886 83.86C61.0473 83.86 59.4526 84.64 58.2046 86.2C56.9913 87.76 56.3846 89.788 56.3846 92.284C56.3846 94.7107 56.9913 96.6867 58.2046 98.212C59.4526 99.7373 61.0473 100.5 62.9886 100.5Z" fill="#6DEFA1"/>
<path d="M63.9886 106.78C61.042 106.78 58.4246 106.121 56.1366 104.804C53.8486 103.487 52.046 101.667 50.7286 99.344C49.446 96.9867 48.8046 94.3 48.8046 91.284C48.8046 88.1987 49.446 85.4773 50.7286 83.12C52.046 80.7627 53.8486 78.9253 56.1366 77.608C58.4246 76.256 61.042 75.58 63.9886 75.58C66.97 75.58 69.5873 76.256 71.8406 77.608C74.1286 78.9253 75.914 80.7627 77.1966 83.12C78.514 85.4773 79.1726 88.1987 79.1726 91.284C79.1726 94.3 78.514 96.9867 77.1966 99.344C75.914 101.667 74.1286 103.487 71.8406 104.804C69.5873 106.121 66.97 106.78 63.9886 106.78ZM63.9886 99.5C65.93 99.5 67.5073 98.7373 68.7206 97.212C69.9686 95.6867 70.5926 93.7107 70.5926 91.284C70.5926 88.788 69.9686 86.76 68.7206 85.2C67.5073 83.64 65.93 82.86 63.9886 82.86C62.0473 82.86 60.4526 83.64 59.2046 85.2C57.9913 86.76 57.3846 88.788 57.3846 91.284C57.3846 93.7107 57.9913 95.6867 59.2046 97.212C60.4526 98.7373 62.0473 99.5 63.9886 99.5Z" fill="url(#paint8_linear_11974_34)"/>
<defs>
<filter id="filter0_d_11974_34" x="39" y="67" width="49" height="49" filterUnits="userSpaceOnUse" color-interpolation-filters="sRGB">
<feFlood flood-opacity="0" result="BackgroundImageFix"/>
<feColorMatrix in="SourceAlpha" type="matrix" values="0 0 0 0 0 0 0 0 0 0 0 0 0 0 0 0 0 0 127 0" result="hardAlpha"/>
<feOffset dx="-1" dy="1"/>
<feComposite in2="hardAlpha" operator="out"/>
<feColorMatrix type="matrix" values="0 0 0 0 0.322318 0 0 0 0 0.0486883 0 0 0 0 0.492413 0 0 0 1 0"/>
<feBlend mode="normal" in2="BackgroundImageFix" result="effect1_dropShadow_11974_34"/>
<feBlend mode="normal" in="SourceGraphic" in2="effect1_dropShadow_11974_34" result="shape"/>
</filter>
<linearGradient id="paint0_linear_11974_34" x1="64" y1="67" x2="64" y2="115" gradientUnits="userSpaceOnUse">
<stop/>
<stop offset="1" stop-color="#332E2E"/>
</linearGradient>
<linearGradient id="paint1_linear_11974_34" x1="96" y1="37" x2="96" y2="85" gradientUnits="userSpaceOnUse">
<stop/>
<stop offset="1" stop-color="#332E2E"/>
</linearGradient>
<linearGradient id="paint2_linear_11974_34" x1="97" y1="41.7419" x2="97" y2="81.2258" gradientUnits="userSpaceOnUse">
<stop stop-color="#FF006F"/>
<stop offset="1" stop-color="#FF006F"/>
</linearGradient>
<linearGradient id="paint3_linear_11974_34" x1="64" y1="11" x2="64" y2="59" gradientUnits="userSpaceOnUse">
<stop/>
<stop offset="1" stop-color="#332E2E"/>
</linearGradient>
<linearGradient id="paint4_linear_11974_34" x1="64" y1="15.2903" x2="64" y2="56.4194" gradientUnits="userSpaceOnUse">
<stop stop-color="#DDF82E"/>
<stop offset="0.838068" stop-color="#D2DC1C"/>
</linearGradient>
<linearGradient id="paint5_linear_11974_34" x1="32" y1="37" x2="32" y2="85" gradientUnits="userSpaceOnUse">
<stop/>
<stop offset="1" stop-color="#332E2E"/>
</linearGradient>
<linearGradient id="paint6_linear_11974_34" x1="33" y1="42.5" x2="33" y2="75" gradientUnits="userSpaceOnUse">
<stop stop-color="#38B4E1"/>
<stop offset="1" stop-color="#0051FF"/>
</linearGradient>
<linearGradient id="paint7_linear_11974_34" x1="64" y1="67" x2="64" y2="115" gradientUnits="userSpaceOnUse">
<stop/>
<stop offset="1" stop-color="#332E2E"/>
</linearGradient>
<linearGradient id="paint8_linear_11974_34" x1="64" y1="72.2903" x2="64" y2="120" gradientUnits="userSpaceOnUse">
<stop stop-color="#00FF66"/>
<stop offset="1" stop-color="#109648"/>
</linearGradient>
<clipPath id="clip0_11974_34">
<rect width="25" height="49" fill="white" transform="translate(39 67)"/>
</clipPath>
</defs>
</svg>
